<?xml version="1.0" encoding="UTF-8" standalone="no"?>
<svg
   xmlns:dc="http://purl.org/dc/elements/1.1/"
   xmlns:cc="http://creativecommons.org/ns#"
   xmlns:rdf="http://www.w3.org/1999/02/22-rdf-syntax-ns#"
   xmlns:svg="http://www.w3.org/2000/svg"
   xmlns="http://www.w3.org/2000/svg"
   xml:space="preserve"
   enable-background="new 0 0 841.891 595.275"
   viewBox="0 0 205 194.99999"
   height="195"
   width="205"
   y="0px"
   x="0px"
   id="Ebene_1"
   version="1.1"><metadata
     id="metadata3531"><rdf:RDF><cc:Work
         rdf:about=""><dc:format>image/svg+xml</dc:format><dc:type
           rdf:resource="http://purl.org/dc/dcmitype/StillImage" /><dc:title></dc:title></cc:Work></rdf:RDF></metadata><defs
     id="defs3529" /><g fill="#808080"
     transform="translate(-304.68222,-205.53158)"
     id="g3533"><polygon
       points="406.442,391.329 371.488,291.663 313.963,320.649 "
       id="polygon3507" /><polygon
       points="412.104,390.616 486.65,364.688 377.364,292.778 "
       id="polygon3509" /><polygon
       points="489.278,359.938 495.062,301.006 380.605,289.353 "
       id="polygon3511" /><polygon
       points="483.738,294.41 433.838,212.04 398.033,285.578 "
       id="polygon3513" /><polygon
       points="313.898,314.954 345.086,298.537 321.654,294.104 "
       id="polygon3515" /><polygon
       points="387.519,383.332 318.13,330.15 337.598,362.703 "
       id="polygon3517" /><polygon
       points="395.669,277.74 428.414,214.136 395.271,232.357 "
       id="polygon3519" /><polygon
       points="476.19,271.312 484.164,256.822 441.118,213.607 "
       id="polygon3521" /><polygon
       points="482.538,270.923 500.521,267.521 487.358,261.765 "
       id="polygon3523" /><polygon
       points="485.775,251.826 496.3,231.083 469.761,235.658 "
       id="polygon3525" /></g></svg>