<?xml version="1.0" encoding="UTF-8" standalone="no"?>
<svg
   xmlns:dc="http://purl.org/dc/elements/1.1/"
   xmlns:cc="http://creativecommons.org/ns#"
   xmlns:rdf="http://www.w3.org/1999/02/22-rdf-syntax-ns#"
   xmlns:svg="http://www.w3.org/2000/svg"
   xmlns="http://www.w3.org/2000/svg"
   xml:space="preserve"
   enable-background="new 0 0 841.891 595.275"
   viewBox="0 0 215 194.99999"
   height="195"
   width="215"
   y="0px"
   x="0px"
   id="Ebene_1"
   version="1.1"><metadata
     id="metadata3689"><rdf:RDF><cc:Work
         rdf:about=""><dc:format>image/svg+xml</dc:format><dc:type
           rdf:resource="http://purl.org/dc/dcmitype/StillImage" /><dc:title></dc:title></cc:Work></rdf:RDF></metadata><defs
     id="defs3687" /><g
     transform="translate(-290.07046,-193.96452)"
     id="g3679"><path fill="#ffffff"
       id="path3681"
       d="m 490.582,291.744 c 6.443,12.247 -1.921,-4.048 0,0 l 0,0 z" /><path fill="#ffffff"
       id="path3683"
       d="m 490.582,291.744 c -2.586,-4.919 -16.557,-23.543 -23.193,-21.088 -1.29,-3.316 52.304,-2.455 13.357,-26.236 2.585,-8.271 11.546,-13.958 13.1,-24.806 2.036,-14.216 -30.059,1.736 -33.528,3.288 -5.846,-20.019 -32.976,-24.051 -50.149,-18.916 -31.678,9.472 -32.082,44.914 -20.1,69.115 -27.945,0.569 -37.423,17.285 -48.332,12.191 -18.639,-8.703 -33.41,-8.362 -37.447,13.029 -8.771,46.473 50.662,77.208 87.797,83.177 26.842,4.314 53.725,0.259 72.218,-12.782 27.64,-19.492 40.742,-46.493 26.277,-76.972 z m -22.095,41.726 c -3.37,17.728 -8.939,24.991 -20.214,38.467 -0.954,1.139 -2.352,1.791 -3.836,1.791 -1.171,0 -2.31,-0.414 -3.208,-1.165 -2.113,-1.769 -2.395,-4.928 -0.627,-7.042 9.983,-11.934 15.048,-21.427 18.063,-33.863 2.595,-10.698 -0.094,-23.067 -7.191,-33.088 -7.16,-10.109 -19.555,-18.162 -21.967,-19.673 -0.172,-0.108 -0.267,-0.175 -0.284,-0.188 l -3.12,-2.246 1.373,-3.596 c 0.146,-0.383 0.292,-0.601 0.558,-0.997 2.869,-4.291 12.232,-19.135 12.232,-29.972 0,-10.56 -8.494,-20.239 -11.098,-22.954 -0.223,-0.232 -0.476,-0.497 -0.711,-0.948 -1.277,-2.42 -0.342,-5.45 2.097,-6.737 0.716,-0.379 1.523,-0.58 2.334,-0.58 1.71,0 3.28,0.864 4.196,2.282 0.058,0.064 0.128,0.143 0.21,0.235 10.722,12.021 12.972,22.243 12.972,28.702 0,10.169 -6.567,21.733 -10.491,28.644 -0.491,0.865 -0.972,1.711 -1.384,2.459 5.07,3.606 14.778,10.66 21.243,19.789 8.922,12.595 11.735,25.522 8.853,40.68 z" /></g></svg>