<?xml version="1.0" encoding="UTF-8" standalone="no"?>
<svg
   xmlns:dc="http://purl.org/dc/elements/1.1/"
   xmlns:cc="http://creativecommons.org/ns#"
   xmlns:rdf="http://www.w3.org/1999/02/22-rdf-syntax-ns#"
   xmlns:svg="http://www.w3.org/2000/svg"
   xmlns="http://www.w3.org/2000/svg"
   xml:space="preserve"
   enable-background="new 0 0 841.891 595.275"
   viewBox="0 0 210 194.99999"
   height="195"
   width="210"
   y="0px"
   x="0px"
   id="Ebene_1"
   version="1.1"><metadata
     id="metadata29"><rdf:RDF><cc:Work
         rdf:about=""><dc:format>image/svg+xml</dc:format><dc:type
           rdf:resource="http://purl.org/dc/dcmitype/StillImage" /><dc:title></dc:title></cc:Work></rdf:RDF></metadata><defs
     id="defs27" /><g
     transform="translate(-294.46574,-195.4422)"
     id="g3357"><path
       d="m 479.437,272.564 c -2.33,0 -4.415,-1.637 -4.896,-4.008 -0.549,-2.706 1.2,-5.345 3.907,-5.894 l 0.825,-0.17 c 2.702,-0.564 5.352,1.169 5.917,3.872 0.564,2.703 -1.169,5.353 -3.872,5.917 l -0.884,0.182 c -0.334,0.068 -0.668,0.101 -0.997,0.101 z m 12.384,-4.114 c -1.641,0 -3.248,-0.808 -4.205,-2.288 -1.498,-2.319 -0.832,-5.415 1.487,-6.913 0.144,-0.093 0.28,-0.188 0.409,-0.285 2.202,-1.669 5.337,-1.235 7.005,0.966 1.668,2.201 1.235,5.338 -0.966,7.005 -0.322,0.244 -0.664,0.483 -1.022,0.715 -0.839,0.541 -1.779,0.8 -2.708,0.8 z m -0.188,-10.875 c -1.309,0 -2.615,-0.511 -3.597,-1.525 -0.158,-0.164 -0.325,-0.331 -0.499,-0.5 -1.984,-1.92 -2.035,-5.086 -0.114,-7.069 1.92,-1.984 5.085,-2.037 7.069,-0.114 0.256,0.247 0.501,0.492 0.735,0.734 1.919,1.986 1.864,5.151 -0.121,7.07 -0.97,0.937 -2.223,1.404 -3.473,1.404 z"
       id="path3" /><path
       d="m 487.461,238.283 c -1.021,0 -2.052,-0.312 -2.94,-0.959 -2.232,-1.627 -2.723,-4.754 -1.097,-6.985 l 0.496,-0.688 c 1.604,-2.249 4.726,-2.769 6.975,-1.168 2.248,1.604 2.771,4.727 1.168,6.975 l -0.557,0.77 c -0.979,1.343 -2.501,2.055 -4.045,2.055 z m 6.066,-11.916 c -0.366,0 -0.737,-0.04 -1.108,-0.124 -2.693,-0.61 -4.383,-3.287 -3.773,-5.98 0.051,-0.225 0.098,-0.451 0.141,-0.682 0.5,-2.716 3.104,-4.514 5.823,-4.011 2.715,0.5 4.512,3.107 4.011,5.823 -0.066,0.363 -0.141,0.723 -0.221,1.076 -0.526,2.323 -2.588,3.898 -4.873,3.898 z m -21.196,-3.683 c -2.007,0 -3.899,-1.216 -4.666,-3.2 -0.994,-2.576 0.288,-5.471 2.864,-6.466 l 0.885,-0.336 c 2.586,-0.97 5.468,0.341 6.438,2.926 0.97,2.586 -0.341,5.468 -2.926,6.438 l -0.795,0.303 c -0.592,0.226 -1.201,0.335 -1.8,0.335 z m 12.921,-3.713 c -2.456,0 -4.599,-1.811 -4.946,-4.312 -0.381,-2.735 1.528,-5.261 4.263,-5.642 0.366,-0.051 0.728,-0.095 1.082,-0.13 2.732,-0.285 5.198,1.728 5.474,4.476 0.276,2.747 -1.728,5.198 -4.476,5.474 -0.229,0.023 -0.464,0.052 -0.701,0.085 -0.235,0.032 -0.467,0.049 -0.696,0.049 z"
       id="path5" /><path
       d="m 384.816,263.795 c -2.24,0 -4.279,-1.517 -4.847,-3.788 -0.091,-0.363 -0.179,-0.727 -0.265,-1.091 -0.631,-2.688 1.036,-5.379 3.724,-6.011 2.687,-0.634 5.379,1.035 6.011,3.724 0.074,0.317 0.151,0.636 0.23,0.952 0.67,2.679 -0.959,5.394 -3.638,6.063 -0.405,0.102 -0.813,0.151 -1.215,0.151 z m -2.007,-15.593 c -2.743,0 -4.977,-2.212 -4.999,-4.96 l 0,-0.224 c 0,-0.32 0.002,-0.632 0.007,-0.942 0.042,-2.735 2.272,-4.924 4.998,-4.924 0.026,0 0.052,0 0.078,0.001 2.761,0.042 4.965,2.314 4.923,5.075 -0.004,0.266 -0.006,0.532 -0.006,0.799 l 0,0.135 c 0.022,2.761 -2.198,5.018 -4.959,5.04 -0.014,0 -0.028,0 -0.042,0 z m 2.329,-15.512 c -0.521,0 -1.052,-0.082 -1.574,-0.255 -2.621,-0.868 -4.042,-3.697 -3.173,-6.319 0.124,-0.373 0.251,-0.744 0.384,-1.112 0.935,-2.598 3.801,-3.949 6.398,-3.01 2.598,0.936 3.946,3.8 3.01,6.398 -0.104,0.288 -0.203,0.577 -0.3,0.87 -0.695,2.099 -2.649,3.428 -4.745,3.428 z m 7.891,-13.485 c -1.225,0 -2.453,-0.447 -3.417,-1.351 -2.015,-1.889 -2.119,-5.053 -0.23,-7.067 0.276,-0.295 0.557,-0.585 0.844,-0.871 1.953,-1.953 5.118,-1.953 7.071,0 1.953,1.952 1.953,5.118 0,7.07 -0.209,0.21 -0.416,0.422 -0.617,0.637 -0.985,1.051 -2.316,1.582 -3.651,1.582 z m 58.989,-3.77 c -1.121,0 -2.249,-0.375 -3.182,-1.146 -0.221,-0.182 -0.445,-0.36 -0.673,-0.534 -2.193,-1.676 -2.613,-4.814 -0.937,-7.009 1.675,-2.193 4.814,-2.614 7.009,-0.937 0.327,0.25 0.651,0.507 0.97,0.771 2.129,1.759 2.429,4.91 0.67,7.039 -0.988,1.196 -2.417,1.816 -3.857,1.816 z m -46.037,-4.975 c -1.974,0 -3.844,-1.176 -4.634,-3.117 -1.04,-2.559 0.19,-5.476 2.748,-6.516 0.358,-0.146 0.721,-0.289 1.088,-0.428 2.581,-0.982 5.469,0.32 6.448,2.901 0.979,2.582 -0.32,5.47 -2.902,6.448 -0.292,0.111 -0.581,0.226 -0.866,0.342 -0.616,0.252 -1.255,0.37 -1.882,0.37 z m 31.99,-1.871 c -0.417,0 -0.841,-0.052 -1.263,-0.162 -0.304,-0.079 -0.61,-0.154 -0.917,-0.228 -2.687,-0.639 -4.346,-3.335 -3.707,-6.021 0.639,-2.686 3.331,-4.349 6.021,-3.707 0.375,0.089 0.748,0.182 1.12,0.278 2.673,0.695 4.275,3.425 3.58,6.098 -0.584,2.25 -2.613,3.742 -4.834,3.742 z m -16.681,-1.522 c -2.621,0 -4.822,-2.041 -4.986,-4.693 -0.169,-2.756 1.927,-5.128 4.684,-5.297 0.377,-0.023 0.755,-0.044 1.134,-0.061 2.764,-0.119 5.094,2.014 5.218,4.772 0.123,2.759 -2.014,5.095 -4.772,5.218 -0.322,0.015 -0.644,0.031 -0.965,0.051 -0.106,0.007 -0.21,0.01 -0.313,0.01 z"
       id="path7" /><path
       d="m 417.684,388.046 c -2.662,0 -4.875,-2.099 -4.992,-4.785 -0.119,-2.759 2.021,-5.091 4.78,-5.21 l 0.989,-0.047 c 2.758,-0.14 5.103,1.991 5.239,4.749 0.135,2.759 -1.991,5.104 -4.75,5.239 l -1.047,0.049 c -0.073,0.003 -0.146,0.005 -0.219,0.005 z m -14.214,-0.22 c -0.121,0 -0.243,-0.004 -0.366,-0.013 l -1.057,-0.081 c -2.752,-0.223 -4.803,-2.634 -4.581,-5.387 0.223,-2.753 2.633,-4.822 5.387,-4.58 l 0.971,0.073 c 2.754,0.199 4.826,2.594 4.626,5.348 -0.188,2.632 -2.383,4.64 -4.98,4.64 z m 29.354,-1.475 c -2.365,0 -4.468,-1.686 -4.911,-4.095 -0.501,-2.716 1.296,-5.323 4.011,-5.823 0.314,-0.058 0.627,-0.117 0.938,-0.179 2.701,-0.536 5.339,1.229 5.872,3.938 0.534,2.709 -1.229,5.339 -3.938,5.872 -0.353,0.069 -0.706,0.137 -1.06,0.202 -0.306,0.057 -0.611,0.085 -0.912,0.085 z m -44.46,-0.52 c -0.316,0 -0.637,-0.03 -0.959,-0.093 -0.348,-0.067 -0.697,-0.139 -1.047,-0.21 -2.705,-0.555 -4.449,-3.197 -3.894,-5.902 0.555,-2.705 3.198,-4.445 5.902,-3.895 l 0.947,0.19 c 2.711,0.527 4.481,3.151 3.954,5.862 -0.465,2.39 -2.558,4.048 -4.903,4.048 z m 59.164,-3.456 c -2.04,0 -3.956,-1.258 -4.697,-3.286 -0.946,-2.595 0.389,-5.465 2.982,-6.412 0.299,-0.108 0.596,-0.219 0.893,-0.332 2.579,-0.981 5.469,0.317 6.449,2.9 0.979,2.581 -0.318,5.469 -2.9,6.449 -0.336,0.127 -0.674,0.253 -1.012,0.377 -0.566,0.206 -1.145,0.304 -1.715,0.304 z M 373.6,381.99 c -0.506,0 -1.022,-0.077 -1.53,-0.24 l -0.991,-0.321 c -2.625,-0.858 -4.057,-3.682 -3.2,-6.306 0.858,-2.625 3.68,-4.055 6.306,-3.2 l 0.943,0.306 c 2.629,0.845 4.076,3.661 3.231,6.29 -0.681,2.12 -2.645,3.471 -4.759,3.471 z m -14.275,-5.382 c -0.659,0 -1.329,-0.131 -1.973,-0.408 -0.329,-0.142 -0.657,-0.286 -0.985,-0.432 -2.524,-1.12 -3.661,-4.075 -2.541,-6.599 1.122,-2.523 4.075,-3.66 6.599,-2.54 0.292,0.13 0.584,0.259 0.877,0.385 2.537,1.091 3.708,4.032 2.618,6.568 -0.814,1.894 -2.657,3.026 -4.595,3.026 z m 101.913,-0.854 c -1.671,0 -3.304,-0.838 -4.251,-2.361 -1.458,-2.346 -0.739,-5.428 1.606,-6.886 0.263,-0.164 0.524,-0.329 0.784,-0.497 2.319,-1.502 5.414,-0.837 6.914,1.48 1.501,2.318 0.838,5.414 -1.48,6.914 -0.311,0.201 -0.623,0.399 -0.938,0.595 -0.821,0.511 -1.734,0.755 -2.635,0.755 z M 345.67,369.813 c -0.838,0 -1.687,-0.211 -2.467,-0.654 l -0.902,-0.515 c -2.396,-1.374 -3.223,-4.431 -1.849,-6.825 1.375,-2.395 4.43,-3.224 6.825,-1.849 l 0.868,0.495 c 2.401,1.365 3.24,4.418 1.875,6.818 -0.92,1.621 -2.61,2.53 -4.35,2.53 z m 127.721,-3.241 c -1.386,0 -2.765,-0.573 -3.753,-1.694 -1.826,-2.071 -1.627,-5.231 0.445,-7.057 l 0.722,-0.644 c 2.055,-1.847 5.216,-1.678 7.062,0.376 1.846,2.054 1.678,5.216 -0.376,7.062 -0.264,0.236 -0.528,0.473 -0.796,0.708 -0.951,0.838 -2.131,1.249 -3.304,1.249 z m -140.524,-5.037 c -1.032,0 -2.072,-0.317 -2.966,-0.978 -0.287,-0.212 -0.572,-0.425 -0.856,-0.64 -2.204,-1.663 -2.643,-4.799 -0.979,-7.003 1.664,-2.204 4.798,-2.644 7.003,-0.979 0.256,0.193 0.514,0.387 0.772,0.577 2.222,1.641 2.693,4.771 1.053,6.992 -0.981,1.329 -2.495,2.031 -4.027,2.031 z m 151.03,-5.976 c -1.083,0 -2.174,-0.35 -3.091,-1.072 -2.169,-1.708 -2.543,-4.852 -0.834,-7.021 0.192,-0.244 0.384,-0.49 0.571,-0.737 1.673,-2.197 4.81,-2.626 7.007,-0.952 2.198,1.673 2.624,4.81 0.952,7.007 -0.223,0.292 -0.447,0.581 -0.675,0.87 -0.985,1.25 -2.45,1.905 -3.93,1.905 z m -162.569,-3.966 c -1.29,0 -2.579,-0.496 -3.557,-1.486 -0.255,-0.258 -0.508,-0.519 -0.759,-0.779 -1.913,-1.992 -1.848,-5.157 0.145,-7.069 1.991,-1.913 5.157,-1.849 7.069,0.144 0.218,0.228 0.438,0.453 0.659,0.678 1.94,1.964 1.921,5.13 -0.043,7.07 -0.975,0.961 -2.245,1.442 -3.514,1.442 z m 170.543,-8.98 c -0.691,0 -1.395,-0.144 -2.065,-0.448 -2.514,-1.143 -3.626,-4.106 -2.484,-6.621 0.13,-0.284 0.256,-0.569 0.381,-0.856 1.101,-2.532 4.042,-3.695 6.578,-2.594 2.532,1.1 3.694,4.045 2.594,6.578 -0.146,0.338 -0.296,0.674 -0.447,1.009 -0.839,1.842 -2.657,2.932 -4.557,2.932 z m -180.089,-2.864 c -1.65,0 -3.266,-0.816 -4.22,-2.311 -0.197,-0.31 -0.392,-0.62 -0.583,-0.932 -1.447,-2.352 -0.714,-5.432 1.638,-6.879 2.352,-1.445 5.431,-0.713 6.879,1.639 0.163,0.265 0.328,0.528 0.496,0.791 1.485,2.328 0.803,5.42 -1.525,6.905 -0.834,0.533 -1.765,0.787 -2.685,0.787 z m 184.33,-11.721 c -0.217,0 -0.437,-0.015 -0.658,-0.044 -2.737,-0.36 -4.665,-2.871 -4.305,-5.609 0.04,-0.305 0.077,-0.609 0.112,-0.916 0.311,-2.743 2.776,-4.732 5.531,-4.404 2.743,0.311 4.716,2.787 4.404,5.531 -0.041,0.365 -0.086,0.73 -0.134,1.094 -0.33,2.516 -2.478,4.348 -4.95,4.348 z m -190.724,-2.051 c -2.158,0 -4.149,-1.408 -4.792,-3.583 -0.105,-0.355 -0.207,-0.71 -0.305,-1.066 -0.733,-2.663 0.83,-5.415 3.493,-6.148 2.663,-0.731 5.415,0.83 6.148,3.492 0.082,0.296 0.167,0.592 0.253,0.887 0.784,2.647 -0.728,5.43 -3.376,6.213 -0.474,0.138 -0.952,0.205 -1.421,0.205 z m 190.396,-13.126 c -2.394,0 -4.509,-1.724 -4.924,-4.162 -0.051,-0.303 -0.104,-0.604 -0.162,-0.909 -0.515,-2.713 1.268,-5.329 3.981,-5.843 2.712,-0.515 5.329,1.268 5.843,3.981 0.069,0.365 0.135,0.729 0.197,1.093 0.463,2.723 -1.369,5.305 -4.091,5.769 -0.283,0.047 -0.566,0.071 -0.844,0.071 z m -192.339,-1.904 c -0.056,0 -0.113,-10e-4 -0.169,-0.003 -2.76,-0.092 -4.923,-2.403 -4.831,-5.164 0.012,-0.369 0.028,-0.741 0.048,-1.114 0.146,-2.758 2.478,-4.88 5.259,-4.728 2.757,0.146 4.874,2.501 4.728,5.259 -0.017,0.307 -0.03,0.612 -0.04,0.917 -0.091,2.703 -2.311,4.833 -4.995,4.833 z M 491.31,298.322 c -1.918,0 -3.747,-1.109 -4.574,-2.976 -0.125,-0.281 -0.252,-0.562 -0.382,-0.842 -0.119,-0.256 -0.214,-0.516 -0.287,-0.778 -0.184,-0.208 -0.353,-0.435 -0.504,-0.679 -0.15,-0.243 -0.314,-0.501 -0.491,-0.773 -1.502,-2.316 -0.842,-5.413 1.476,-6.915 2.316,-1.503 5.414,-0.842 6.915,1.476 0.216,0.333 0.417,0.649 0.601,0.945 0.258,0.416 0.446,0.854 0.57,1.302 0.312,0.354 0.579,0.756 0.787,1.204 0.157,0.337 0.31,0.674 0.458,1.01 1.119,2.524 -0.021,5.479 -2.546,6.597 -0.659,0.292 -1.348,0.429 -2.023,0.429 z m -184.938,-2.256 c -0.639,0 -1.289,-0.123 -1.916,-0.384 -2.55,-1.059 -3.759,-3.985 -2.7,-6.535 0.156,-0.376 0.316,-0.743 0.481,-1.101 1.154,-2.51 4.123,-3.609 6.631,-2.455 2.509,1.153 3.608,4.122 2.455,6.631 -0.114,0.248 -0.224,0.502 -0.332,0.761 -0.798,1.923 -2.659,3.083 -4.619,3.083 z m 39.85,-4.81 c -2.721,0 -4.95,-2.182 -4.997,-4.913 -0.048,-2.761 2.151,-5.038 4.912,-5.086 0.185,-0.004 0.37,-0.017 0.557,-0.037 2.741,-0.292 5.214,1.683 5.514,4.427 0.3,2.745 -1.682,5.214 -4.427,5.515 -0.496,0.054 -0.99,0.086 -1.469,0.094 -0.031,0 -0.061,0 -0.09,0 z m -13.403,-4.489 c -0.497,0 -1.002,-0.074 -1.501,-0.231 -0.295,-0.093 -0.589,-0.181 -0.882,-0.267 -2.649,-0.778 -4.167,-3.557 -3.39,-6.206 0.779,-2.65 3.559,-4.164 6.206,-3.39 0.353,0.104 0.708,0.211 1.064,0.323 2.634,0.828 4.099,3.635 3.271,6.269 -0.67,2.135 -2.642,3.502 -4.768,3.502 z m 27.549,-0.868 c -1.841,0 -3.612,-1.021 -4.485,-2.782 -1.225,-2.475 -0.212,-5.475 2.262,-6.699 l 0.934,-0.46 c 2.483,-1.211 5.476,-0.184 6.688,2.296 1.213,2.481 0.185,5.476 -2.295,6.688 l -0.889,0.437 c -0.714,0.353 -1.47,0.52 -2.215,0.52 z m -43.54,-0.178 c -2.151,0 -4.137,-1.398 -4.787,-3.564 -0.793,-2.645 0.708,-5.433 3.353,-6.226 0.413,-0.124 0.832,-0.237 1.257,-0.339 2.686,-0.642 5.383,1.018 6.023,3.703 0.641,2.686 -1.017,5.383 -3.703,6.023 -0.238,0.057 -0.473,0.121 -0.704,0.19 -0.479,0.144 -0.963,0.213 -1.439,0.213 z m 163.629,-2.337 c -1.334,0 -2.665,-0.531 -3.649,-1.581 -0.212,-0.226 -0.425,-0.45 -0.64,-0.671 -1.925,-1.98 -1.879,-5.146 0.102,-7.07 1.981,-1.924 5.146,-1.879 7.07,0.102 0.256,0.264 0.512,0.532 0.765,0.802 1.889,2.016 1.785,5.18 -0.229,7.067 -0.966,0.904 -2.193,1.351 -3.419,1.351 z m -105.946,-3.082 c -2.201,0 -4.218,-1.465 -4.822,-3.691 -0.724,-2.664 0.85,-5.411 3.515,-6.135 0.346,-0.094 0.696,-0.187 1.05,-0.277 2.675,-0.687 5.4,0.926 6.086,3.6 0.686,2.675 -0.926,5.399 -3.601,6.086 -0.308,0.079 -0.613,0.16 -0.915,0.242 -0.438,0.118 -0.879,0.175 -1.313,0.175 z"
       id="path9" /><path
       d="m 434.072,362.747 c -0.986,0 -1.982,-0.291 -2.854,-0.896 -2.266,-1.578 -2.824,-4.694 -1.246,-6.961 0.36,-0.517 0.724,-1.047 1.09,-1.589 1.543,-2.289 4.648,-2.896 6.94,-1.351 2.29,1.543 2.895,4.65 1.351,6.94 -0.394,0.585 -0.786,1.156 -1.174,1.714 -0.971,1.396 -2.527,2.143 -4.107,2.143 z m 10.473,-19.303 c -0.566,0 -1.143,-0.097 -1.706,-0.301 -2.596,-0.942 -3.937,-3.811 -2.994,-6.406 0.205,-0.565 0.4,-1.135 0.583,-1.706 0.84,-2.63 3.651,-4.086 6.284,-3.241 2.631,0.84 4.082,3.653 3.241,6.284 -0.222,0.694 -0.458,1.387 -0.708,2.075 -0.738,2.033 -2.656,3.295 -4.7,3.295 z m 1.475,-21.569 c -2.196,0 -4.21,-1.458 -4.819,-3.678 -0.151,-0.553 -0.32,-1.103 -0.503,-1.649 -0.875,-2.619 0.538,-5.452 3.156,-6.328 2.618,-0.873 5.452,0.537 6.328,3.156 0.241,0.721 0.463,1.446 0.663,2.175 0.73,2.663 -0.836,5.414 -3.499,6.146 -0.444,0.12 -0.889,0.178 -1.326,0.178 z m -10.409,-19.239 c -1.481,0 -2.949,-0.655 -3.936,-1.912 -0.396,-0.504 -0.792,-0.999 -1.188,-1.481 -1.75,-2.136 -1.438,-5.286 0.697,-7.036 2.135,-1.749 5.287,-1.439 7.037,0.698 0.438,0.535 0.878,1.083 1.318,1.644 1.705,2.172 1.327,5.314 -0.845,7.021 -0.913,0.717 -2.002,1.066 -3.083,1.066 z m -11.069,-16.203 c -0.98,0 -1.972,-0.288 -2.84,-0.889 -2.271,-1.57 -2.838,-4.686 -1.267,-6.956 0.36,-0.521 0.709,-1.039 1.048,-1.556 1.515,-2.31 4.615,-2.954 6.923,-1.438 2.31,1.515 2.953,4.614 1.438,6.923 -0.384,0.585 -0.778,1.172 -1.187,1.761 -0.969,1.403 -2.529,2.155 -4.115,2.155 z m 9.663,-19.66 c -0.472,0 -0.952,-0.067 -1.428,-0.209 -2.647,-0.787 -4.154,-3.571 -3.366,-6.218 0.176,-0.592 0.339,-1.18 0.491,-1.762 0.696,-2.671 3.424,-4.275 6.1,-3.576 2.672,0.696 4.273,3.428 3.576,6.1 -0.18,0.69 -0.374,1.389 -0.583,2.09 -0.645,2.171 -2.635,3.575 -4.79,3.575 z m 1.946,-21.758 c -2.498,0 -4.657,-1.868 -4.959,-4.41 -0.073,-0.61 -0.156,-1.209 -0.248,-1.797 -0.428,-2.728 1.437,-5.286 4.165,-5.714 2.729,-0.43 5.286,1.438 5.714,4.165 0.111,0.707 0.212,1.429 0.299,2.166 0.326,2.742 -1.633,5.229 -4.375,5.555 -0.2,0.024 -0.399,0.035 -0.596,0.035 z m -7.058,-20.666 c -1.67,0 -3.302,-0.836 -4.249,-2.357 -0.52,-0.834 -0.854,-1.281 -0.857,-1.286 -1.654,-2.2 -1.225,-5.333 0.969,-6.996 2.196,-1.665 5.312,-1.249 6.985,0.936 0.098,0.128 0.625,0.828 1.392,2.06 1.46,2.345 0.743,5.428 -1.601,6.888 -0.824,0.51 -1.737,0.755 -2.639,0.755 z"
       id="path11" /><path
       d="m 409.73,370.727 c -1.549,0 -3.075,-0.717 -4.053,-2.067 -0.387,-0.534 -0.787,-1.091 -1.195,-1.667 -1.599,-2.251 -1.07,-5.372 1.182,-6.972 2.251,-1.598 5.373,-1.069 6.972,1.183 0.39,0.549 0.771,1.08 1.141,1.591 1.62,2.236 1.12,5.362 -1.116,6.982 -0.888,0.641 -1.914,0.95 -2.931,0.95 z m -11.883,-18.546 c -1.769,0 -3.483,-0.94 -4.392,-2.603 -0.335,-0.612 -0.664,-1.228 -0.986,-1.843 -1.28,-2.447 -0.334,-5.469 2.112,-6.749 2.448,-1.278 5.469,-0.333 6.748,2.112 0.294,0.562 0.594,1.123 0.9,1.683 1.325,2.423 0.434,5.461 -1.989,6.786 -0.76,0.416 -1.582,0.614 -2.393,0.614 z m -7.415,-20.577 c -2.612,0 -4.811,-2.028 -4.984,-4.673 -0.035,-0.527 -0.052,-1.048 -0.052,-1.559 l 0.017,-0.924 c 0.086,-2.76 2.386,-4.923 5.155,-4.84 2.76,0.086 4.927,2.395 4.84,5.154 l -0.012,0.609 c 0,0.296 0.01,0.598 0.03,0.904 0.181,2.756 -1.907,5.136 -4.662,5.316 -0.111,0.011 -0.222,0.013 -0.332,0.013 z m 7.257,-20.104 c -1.199,0 -2.402,-0.429 -3.36,-1.299 -2.044,-1.856 -2.197,-5.019 -0.34,-7.062 0.495,-0.545 0.996,-1.072 1.496,-1.585 1.929,-1.977 5.094,-2.016 7.071,-0.086 1.976,1.929 2.014,5.095 0.085,7.07 -0.418,0.429 -0.836,0.868 -1.25,1.323 -0.986,1.087 -2.341,1.639 -3.702,1.639 z m 11.393,-18.178 c -0.242,0 -0.486,-0.018 -0.732,-0.054 -2.732,-0.401 -4.622,-2.94 -4.222,-5.673 0.086,-0.584 0.152,-1.158 0.204,-1.717 0.251,-2.749 2.686,-4.769 5.434,-4.524 2.75,0.252 4.775,2.685 4.524,5.435 -0.067,0.734 -0.155,1.49 -0.268,2.258 -0.364,2.486 -2.5,4.275 -4.94,4.275 z m -2.254,-21.765 c -2.332,0 -4.418,-1.64 -4.896,-4.014 l -0.396,-1.972 c -0.542,-2.708 1.214,-5.342 3.922,-5.884 2.706,-0.534 5.342,1.215 5.883,3.923 l 0.393,1.958 c 0.545,2.707 -1.207,5.344 -3.914,5.889 -0.332,0.067 -0.664,0.1 -0.992,0.1 z m -3.847,-21.703 c -2.605,0 -4.802,-2.019 -4.983,-4.657 -0.027,-0.396 -0.041,-0.802 -0.041,-1.218 0,-0.482 0.019,-0.972 0.054,-1.472 0.193,-2.755 2.591,-4.816 5.337,-4.64 2.754,0.193 4.832,2.583 4.639,5.337 -0.019,0.268 -0.029,0.528 -0.029,0.781 0,0.175 0.006,0.353 0.018,0.525 0.189,2.755 -1.891,5.142 -4.646,5.331 -0.118,0.009 -0.234,0.013 -0.349,0.013 z m 6.265,-20.919 c -0.734,0 -1.48,-0.162 -2.186,-0.506 -2.482,-1.209 -3.515,-4.202 -2.306,-6.685 0.596,-1.223 0.979,-1.945 0.979,-1.945 1.293,-2.439 4.32,-3.37 6.759,-2.077 2.439,1.292 3.371,4.313 2.081,6.753 l 0,0 c -0.02,0.037 -0.339,0.644 -0.828,1.648 -0.866,1.777 -2.646,2.812 -4.499,2.812 z"
       id="path13" /><path
       d="m 374.077,364.387 c -1.255,0 -2.511,-0.47 -3.482,-1.412 -0.476,-0.462 -0.963,-0.938 -1.459,-1.427 -1.967,-1.938 -1.991,-5.104 -0.053,-7.071 1.938,-1.967 5.104,-1.99 7.071,-0.054 0.479,0.472 0.949,0.932 1.407,1.376 1.981,1.924 2.029,5.089 0.105,7.07 -0.981,1.01 -2.285,1.518 -3.589,1.518 z m -15.011,-16.118 c -1.456,0 -2.899,-0.633 -3.887,-1.852 -0.442,-0.546 -0.878,-1.095 -1.306,-1.644 -1.697,-2.179 -1.307,-5.32 0.872,-7.017 2.179,-1.696 5.32,-1.307 7.018,0.872 0.388,0.498 0.784,0.996 1.185,1.491 1.739,2.146 1.409,5.294 -0.736,7.033 -0.926,0.751 -2.04,1.117 -3.146,1.117 z m -10.244,-19.176 c -2.586,0 -4.777,-1.992 -4.979,-4.614 -0.033,-0.42 -0.049,-0.835 -0.049,-1.243 0,-0.236 0.005,-0.471 0.017,-0.702 0.014,-0.332 0.044,-0.687 0.088,-1.044 0.337,-2.741 2.827,-4.688 5.573,-4.354 2.741,0.337 4.689,2.832 4.353,5.572 -0.012,0.096 -0.021,0.19 -0.024,0.283 -0.004,0.094 -0.006,0.168 -0.006,0.244 0,0.154 0.006,0.312 0.019,0.472 0.213,2.753 -1.846,5.157 -4.599,5.371 -0.133,0.01 -0.264,0.015 -0.393,0.015 z m 10.62,-18.657 c -1.244,0 -2.489,-0.461 -3.458,-1.389 -1.995,-1.909 -2.063,-5.075 -0.153,-7.069 0.482,-0.504 0.97,-1.004 1.461,-1.499 1.945,-1.964 5.111,-1.976 7.071,-0.029 1.96,1.944 1.974,5.11 0.029,7.07 -0.45,0.454 -0.897,0.913 -1.339,1.374 -0.981,1.025 -2.295,1.542 -3.611,1.542 z m 16.46,-14.652 c -1.49,0 -2.965,-0.663 -3.951,-1.931 -1.695,-2.18 -1.302,-5.321 0.878,-7.017 1.071,-0.833 1.697,-1.296 1.697,-1.296 2.219,-1.642 5.35,-1.174 6.992,1.044 1.643,2.219 1.178,5.349 -1.04,6.992 -0.025,0.019 -0.579,0.43 -1.51,1.154 -0.913,0.71 -1.993,1.054 -3.066,1.054 z"
       id="path15" /><path
       d="m 462.169,356.188 c -1.156,0 -2.317,-0.398 -3.262,-1.212 -2.092,-1.802 -2.327,-4.959 -0.524,-7.052 0.395,-0.457 0.8,-0.939 1.213,-1.442 1.752,-2.134 4.904,-2.443 7.037,-0.691 2.135,1.753 2.443,4.903 0.691,7.037 -0.466,0.567 -0.922,1.108 -1.365,1.624 -0.988,1.148 -2.386,1.736 -3.79,1.736 z m 11.904,-18.434 c -0.662,0 -1.334,-0.132 -1.979,-0.41 -2.536,-1.095 -3.703,-4.037 -2.609,-6.572 0.24,-0.556 0.469,-1.111 0.685,-1.671 0.994,-2.577 3.89,-3.86 6.465,-2.865 2.576,0.994 3.859,3.889 2.865,6.465 -0.263,0.681 -0.542,1.359 -0.833,2.034 -0.817,1.889 -2.659,3.019 -4.594,3.019 z m 1.266,-21.254 c -1.896,0 -3.71,-1.084 -4.55,-2.921 -0.228,-0.498 -0.479,-0.997 -0.748,-1.497 -1.311,-2.431 -0.402,-5.464 2.028,-6.774 2.429,-1.308 5.463,-0.403 6.774,2.028 0.378,0.702 0.729,1.403 1.039,2.083 1.148,2.512 0.044,5.479 -2.467,6.627 -0.674,0.308 -1.381,0.454 -2.076,0.454 z m -13.515,-17.247 c -1.24,0 -2.481,-0.458 -3.45,-1.382 -0.466,-0.444 -0.934,-0.884 -1.401,-1.315 -2.028,-1.874 -2.154,-5.037 -0.28,-7.065 1.874,-2.03 5.039,-2.155 7.065,-0.28 0.507,0.469 1.014,0.943 1.519,1.425 1.998,1.905 2.073,5.07 0.167,7.069 -0.983,1.029 -2.3,1.548 -3.62,1.548 z m -17.056,-13.95 c -0.999,0 -2.006,-0.298 -2.883,-0.918 -0.961,-0.68 -1.526,-1.06 -1.555,-1.078 -2.292,-1.538 -2.904,-4.642 -1.368,-6.935 1.536,-2.293 4.641,-2.907 6.936,-1.373 0,0 0.645,0.432 1.761,1.222 2.255,1.595 2.79,4.715 1.195,6.969 -0.974,1.377 -2.519,2.113 -4.086,2.113 z"
       id="path17" /><path
       d="m 484.06,247.357 c -0.899,0.95 -2.169,1.549 -3.58,1.564 -0.229,0.002 -0.464,0.009 -0.706,0.019 -2.759,0.122 -5.094,-2.018 -5.214,-4.775 -0.122,-2.759 2.016,-5.094 4.775,-5.214 0.355,-0.016 0.702,-0.025 1.039,-0.029 2.762,-0.028 5.023,2.187 5.053,4.947 0.013,1.35 -0.509,2.58 -1.367,3.488 z"
       id="path19" /><path
       d="m 464.06,225.024 c -0.899,0.95 -2.169,1.549 -3.58,1.564 -0.229,0.002 -0.464,0.009 -0.706,0.019 -2.759,0.122 -5.094,-2.018 -5.214,-4.775 -0.122,-2.759 2.016,-5.094 4.775,-5.214 0.355,-0.016 0.702,-0.025 1.039,-0.029 2.762,-0.028 5.023,2.187 5.053,4.947 0.013,1.35 -0.509,2.58 -1.367,3.488 z"
       id="path21" /><path
       d="m 394.06,276.023 c -0.899,0.95 -2.169,1.549 -3.58,1.564 -0.229,0.002 -0.464,0.009 -0.706,0.019 -2.759,0.122 -5.094,-2.018 -5.214,-4.775 -0.122,-2.759 2.016,-5.094 4.775,-5.214 0.355,-0.016 0.702,-0.025 1.039,-0.029 2.762,-0.028 5.023,2.187 5.053,4.947 0.013,1.35 -0.509,2.58 -1.367,3.488 z"
       id="path23" /></g></svg>