<?xml version="1.0" encoding="utf-8"?>
<!-- Generator: Adobe Illustrator 15.0.0, SVG Export Plug-In . SVG Version: 6.00 Build 0)  -->
<!DOCTYPE svg PUBLIC "-//W3C//DTD SVG 1.1//EN" "http://www.w3.org/Graphics/SVG/1.1/DTD/svg11.dtd">
<svg version="1.1" id="Ebene_1" xmlns="http://www.w3.org/2000/svg" xmlns:xlink="http://www.w3.org/1999/xlink" x="0px" y="0px"
	 width="841.891px" height="595.275px" viewBox="0 0 841.891 595.275" enable-background="new 0 0 841.891 595.275"
	 xml:space="preserve">
<g>
	<polyline fill="none" stroke="#000000" points="703.965,374.71 703.965,281.383 636.446,281.383 636.446,533.867 562.687,533.867 
		562.687,281.383 530.913,281.383 530.913,228.049 809.498,228.049 809.498,281.383 777.725,281.383 777.725,306.235 	"/>
	<path fill="none" stroke="#000000" d="M709.843,468.731c7.144-9.007,12.316-16.947,16.15-25.468
		c5.592-12.426,5.282-35.404-4.659-51.245c-4.398-7.009-14.907-13.666-14.907-13.666"/>
	<path fill="none" stroke="#000000" d="M787.545,470.244c5.316,5.796,12.704,8.588,21.953,8.588v55.035
		c-65.54,0-95.302-15.106-103.262-61.29"/>
	<path fill="none" stroke="#000000" d="M778.466,311.76c0,0,6.378,12.065,6.378,26.219s-7.119,32.754-7.119,32.754
		s13.877,9.983,22.407,22.027c9.121,12.878,7,36,7,36c-1.893,14.3-5.971,22.727-17.116,36.048"/>
	<path fill-rule="evenodd" clip-rule="evenodd" fill="none" stroke="#000000" stroke-miterlimit="10" d="M778.302,475.246
		c-9.509,3.784-25.439,4.586-32.483,4.431c-31.133-0.689-65.42-12.84-87.607-35.166c-15.566-14.665-28.092-56.843-3.409-65.725
		c6.173-1.49,12.794,1.245,16.252,2.442c3.042,1.053,13.149,8.326,16.269,6.558c5.607-13.15,27.197-15.837,38.879-15.601
		c-6.815-13.764-10.73-22.439-8.52-37.92c1.699-11.889,8.32-23.445,19.654-28.348c17.572-7.602,51.442-4.467,55.806,18.996
		c3.826-0.638,9.209-4.609,12.245-5.867c6.449-2.671,15.69-5.23,18.615-3.141c5.439,5.487-8.962,20.381-12.358,25.25
		c-1.774,2.543,21.13,11.485,12.719,19.27c-2.954,2.733-28.563,2.049-24.721,9.6c6.729-1.611,16.995,12.562,20.092,16.724
		c7.443,9.999,8.767,24.979,7.432,36.979c-1.044,9.381-6.216,21.37-13.113,28.268C807.552,458.496,793.626,469.147,778.302,475.246z
		"/>
</g>
<g>
	<path fill="none" stroke="#000000" d="M53.924,382.618v30.616h23.812v17.52H53.924v50.856H30.622V364.589h50.517v18.029H53.924z"/>
	<path fill="none" stroke="#000000" d="M120.428,483.312c-21.941,0-32.998-10.546-32.998-28.745
		c0-23.473,17.349-30.786,41.842-34.019v-3.062c0-8.675-5.103-12.757-13.097-12.757c-7.654,0-14.458,2.212-19.39,4.763
		l-4.592-14.457c5.273-2.892,14.458-6.804,28.235-6.804c17.179,0,30.106,8.504,30.106,33.678v54.599
		C143.9,480.76,134.716,483.312,120.428,483.312z M129.273,433.815c-14.118,1.871-21.091,6.633-21.091,19.9
		c0,9.354,4.593,14.628,13.267,14.628c3.062,0,6.123-0.851,7.824-1.531V433.815z"/>
	<path fill="none" stroke="#000000" d="M195.773,483.312c-13.947,0-22.282-3.062-27.044-6.804V348.09h21.941v43.713
		c2.892-1.7,7.314-2.892,13.777-2.892c17.859,0,29.936,17.18,29.936,44.394C234.383,465.452,221.287,483.312,195.773,483.312z
		 M198.495,404.05c-3.062,0-5.443,0.34-7.824,1.7v60.382c1.701,0.681,3.912,1.191,6.463,1.191c11.566,0,15.308-12.927,15.308-32.317
		C212.442,417.656,208.87,404.05,198.495,404.05z"/>
	<path fill="none" stroke="#000000" d="M271.8,483.312c-12.417,0-20.751-2.722-26.024-6.804l5.443-18.37
		c2.551,2.212,8.504,5.443,16.159,5.443c7.824,0,13.097-5.273,13.097-12.247c0-8.504-3.912-13.437-14.968-22.792
		c-12.757-10.886-18.54-20.58-18.54-33.337c0-19.73,12.927-32.317,31.296-32.317c9.525,0,18.029,2.722,22.792,6.804l-4.252,15.818
		c-2.721-2.211-7.994-4.423-14.627-4.423c-7.144,0-12.247,4.593-12.247,12.417s3.572,12.417,14.458,21.602
		c13.437,11.396,20.581,20.07,20.581,34.698C304.967,470.044,291.7,483.312,271.8,483.312z"/>
	<path fill="none" stroke="#000000" d="M348.508,483.312c-18.71,0-31.637-16.499-31.637-47.796
		c0-31.126,14.288-47.284,31.637-47.284c9.865,0,15.648,3.062,19.05,6.804l-4.422,13.776c-1.701-1.7-4.762-3.401-9.355-3.401
		c-9.865,0-14.627,11.736-14.627,29.766c0,18.54,5.443,29.766,14.288,29.766c4.762,0,7.654-1.36,9.695-3.401l4.593,14.968
		C364.326,480.25,358.883,483.312,348.508,483.312z"/>
	<path fill="none" stroke="#000000" d="M408.037,483.312c-21.941,0-32.998-10.546-32.998-28.745
		c0-23.473,17.349-30.786,41.842-34.019v-3.062c0-8.675-5.103-12.757-13.097-12.757c-7.654,0-14.458,2.212-19.39,4.763
		l-4.592-14.457c5.273-2.892,14.458-6.804,28.235-6.804c17.179,0,30.106,8.504,30.106,33.678v54.599
		C431.509,480.76,422.324,483.312,408.037,483.312z M416.881,433.815c-14.118,1.871-21.091,6.633-21.091,19.9
		c0,9.354,4.593,14.628,13.267,14.628c3.062,0,6.123-0.851,7.824-1.531V433.815z"/>
	<path fill="none" stroke="#000000" d="M498.52,481.61v-64.804c0-7.995-3.231-12.417-11.056-12.417c-4.593,0-6.804,0.51-9.186,1.701
		v75.52h-21.941v-86.575c7.314-4.083,17.689-6.804,31.637-6.804c22.452,0,32.827,9.185,32.827,28.575v64.804H498.52z"/>
</g>
<g>
	<path fill="none" stroke="#000000" d="M38.36,534.477c-7.085,0-10.059-6.997-10.059-15.481c0-8.44,2.974-15.48,10.059-15.48
		c7.084,0,10.058,7.04,10.058,15.48C48.418,527.479,45.444,534.477,38.36,534.477z M38.36,508.15c-3.236,0-3.936,5.379-3.936,10.626
		c0,5.292,0.656,10.627,3.936,10.627c3.323,0,3.936-5.335,3.936-10.627C42.295,513.529,41.552,508.15,38.36,508.15z"/>
	<path fill="none" stroke="#000000" d="M61.1,534.389c-1.443,0-2.23-0.262-2.755-0.48v9.533h-5.686v-31.662
		c1.662-1.006,4.067-1.749,7.216-1.749c6.079,0,9.708,4.023,9.708,12.114C69.583,529.71,66.085,534.389,61.1,534.389z
		 M59.919,514.098c-0.7,0-1.225,0.131-1.618,0.306v15.743c0.394,0.088,0.875,0.219,1.399,0.219c3.367,0,4.198-4.285,4.198-8.09
		C63.898,518.121,63.024,514.098,59.919,514.098z"/>
	<path fill="none" stroke="#000000" d="M78.679,524.855c0.35,3.411,1.837,5.116,4.636,5.116c2.405,0,4.023-0.655,4.941-1.225
		l1.269,3.98c-1.487,1.049-3.805,1.749-6.954,1.749c-6.21,0-9.533-4.592-9.533-12.289c0-7.084,3.236-12.157,8.833-12.157
		c5.948,0,8.834,5.073,8.396,13.382L78.679,524.855z M81.74,514.142c-2.099,0-3.455,2.886-3.411,7.04l6.385-0.787
		C84.714,516.415,83.839,514.142,81.74,514.142z"/>
	<path fill="none" stroke="#000000" d="M105.224,534.039v-16.662c0-2.055-0.831-3.192-2.843-3.192c-1.181,0-1.749,0.132-2.361,0.438
		v19.417h-5.642v-22.26c1.881-1.049,4.548-1.749,8.134-1.749c5.772,0,8.44,2.361,8.44,7.347v16.662H105.224z"/>
	<path fill="none" stroke="#000000" d="M131.724,534.477c-3.192,0-5.335-0.7-6.691-1.749l1.399-4.724
		c0.656,0.568,2.187,1.399,4.155,1.399c2.011,0,3.367-1.355,3.367-3.148c0-2.187-1.006-3.455-3.849-5.86
		c-3.28-2.799-4.767-5.291-4.767-8.571c0-5.073,3.324-8.309,8.047-8.309c2.449,0,4.635,0.699,5.86,1.749l-1.093,4.067
		c-0.7-0.569-2.055-1.138-3.761-1.138c-1.837,0-3.149,1.181-3.149,3.192s0.918,3.192,3.717,5.555c3.455,2.93,5.292,5.16,5.292,8.921
		C140.252,531.065,136.841,534.477,131.724,534.477z"/>
	<path fill="none" stroke="#000000" d="M151.928,534.477c-5.772,0-8.615-5.248-8.615-12.245s2.843-12.201,8.615-12.201
		c5.816,0,8.615,5.204,8.615,12.201S157.744,534.477,151.928,534.477z M151.928,514.229c-2.493,0-2.93,3.586-2.93,7.872
		c0,4.285,0.481,7.784,2.93,7.784c2.537,0,2.974-3.499,2.974-7.74C154.902,517.858,154.464,514.229,151.928,514.229z"/>
	<path fill="none" stroke="#000000" d="M172.919,534.477c-5.248,0-8.266-2.274-8.266-8.178v-15.831h5.686v16.486
		c0,1.881,0.918,3.062,2.755,3.062c0.875,0,1.662-0.219,2.274-0.568v-18.979h5.729v22.172
		C179.391,533.733,176.636,534.477,172.919,534.477z"/>
	<path fill="none" stroke="#000000" d="M195.309,514.71c-1.312-0.656-2.799-0.612-3.892-0.088v19.417h-5.642v-22.26
		c2.143-1.268,5.161-1.968,10.583-1.705L195.309,514.71z"/>
	<path fill="none" stroke="#000000" d="M205.673,534.477c-4.811,0-8.134-4.242-8.134-12.289c0-8.003,3.674-12.157,8.134-12.157
		c2.537,0,4.023,0.787,4.898,1.749l-1.137,3.543c-0.438-0.438-1.225-0.875-2.405-0.875c-2.537,0-3.761,3.018-3.761,7.653
		c0,4.767,1.399,7.652,3.673,7.652c1.225,0,1.968-0.35,2.493-0.874l1.181,3.849C209.74,533.689,208.341,534.477,205.673,534.477z"/>
	<path fill="none" stroke="#000000" d="M218.137,524.855c0.35,3.411,1.837,5.116,4.636,5.116c2.405,0,4.023-0.655,4.941-1.225
		l1.269,3.98c-1.487,1.049-3.805,1.749-6.954,1.749c-6.21,0-9.534-4.592-9.534-12.289c0-7.084,3.236-12.157,8.834-12.157
		c5.948,0,8.834,5.073,8.396,13.382L218.137,524.855z M221.198,514.142c-2.099,0-3.455,2.886-3.411,7.04l6.385-0.787
		C224.172,516.415,223.297,514.142,221.198,514.142z"/>
	<path fill="none" stroke="#000000" d="M250.628,534.477c-3.542,0-5.641-0.612-7.216-1.749l1.575-4.286
		c0.787,0.612,2.187,1.181,4.373,1.181c2.58,0,4.417-2.099,4.417-4.679c0-3.236-2.405-5.292-6.035-5.336v-3.323
		c3.367-0.394,5.51-2.012,5.51-4.548c0-2.012-1.487-3.63-3.848-3.63c-1.575,0-2.799,0.524-3.717,1.093l-1.443-3.936
		c1.531-1.05,3.717-1.749,6.647-1.749c5.248,0,7.872,3.586,7.872,7.391c0,3.104-1.75,4.985-3.455,6.035v0.087
		c2.23,1.269,4.286,3.717,4.286,7.74C259.594,530.19,255.701,534.477,250.628,534.477z"/>
	<path fill="none" stroke="#000000" d="M272.318,534.477c-3.367,0-6.079-0.656-7.653-1.749v-27.464
		c1.706-1.006,4.242-1.749,7.347-1.749c8.266,0,11.458,6.604,11.458,15.394C283.47,527.479,280.54,534.477,272.318,534.477z
		 M272.231,508.019c-0.7,0-1.268,0.132-1.662,0.307v21.122c0.35,0.131,1.006,0.263,1.749,0.263c3.673,0,5.117-3.149,5.117-10.977
		C277.435,511.386,275.948,508.019,272.231,508.019z"/>
	<path fill="none" stroke="#000000" d="M298.644,534.039v-30.088h5.991v25.452h6.429v4.636H298.644z"/>
	<path fill="none" stroke="#000000" d="M321.777,534.477c-5.642,0-8.484-2.712-8.484-7.391c0-6.035,4.46-7.916,10.758-8.746v-0.788
		c0-2.229-1.312-3.279-3.367-3.279c-1.968,0-3.717,0.568-4.986,1.225l-1.181-3.718c1.356-0.743,3.717-1.749,7.26-1.749
		c4.417,0,7.74,2.187,7.74,8.659v14.038C327.812,533.82,325.451,534.477,321.777,534.477z M324.051,521.75
		c-3.63,0.481-5.423,1.706-5.423,5.117c0,2.405,1.181,3.761,3.411,3.761c0.787,0,1.574-0.219,2.012-0.394V521.75z"/>
	<path fill="none" stroke="#000000" d="M338.875,534.477c-2.668,0-4.504-0.568-5.86-1.749l1.399-4.155
		c0.656,0.612,2.056,1.312,3.586,1.312c1.487,0,2.449-0.875,2.449-2.187c0-1.706-0.744-2.405-2.843-3.979
		c-2.23-1.662-4.198-3.718-4.198-6.822c0-4.023,2.668-6.866,6.604-6.866c2.537,0,4.417,0.656,5.772,1.749l-1.355,3.63
		c-0.568-0.524-1.662-1.137-3.105-1.137c-1.399,0-2.274,1.05-2.274,2.23c0,1.53,1.093,2.448,3.192,3.979
		c2.449,1.837,4.198,3.542,4.198,6.997C346.441,531.503,343.249,534.477,338.875,534.477z"/>
	<path fill="none" stroke="#000000" d="M355.143,524.855c0.35,3.411,1.837,5.116,4.636,5.116c2.405,0,4.023-0.655,4.941-1.225
		l1.269,3.98c-1.487,1.049-3.805,1.749-6.954,1.749c-6.21,0-9.533-4.592-9.533-12.289c0-7.084,3.236-12.157,8.833-12.157
		c5.948,0,8.834,5.073,8.396,13.382L355.143,524.855z M358.204,514.142c-2.099,0-3.455,2.886-3.411,7.04l6.385-0.787
		C361.178,516.415,360.303,514.142,358.204,514.142z"/>
	<path fill="none" stroke="#000000" d="M380.376,514.71c-1.312-0.656-2.799-0.612-3.892-0.088v19.417h-5.642v-22.26
		c2.143-1.268,5.161-1.968,10.583-1.705L380.376,514.71z"/>
	<path fill="none" stroke="#000000" d="M400.186,534.477c-3.192,0-5.335-0.7-6.691-1.749l1.399-4.724
		c0.656,0.568,2.187,1.399,4.155,1.399c2.012,0,3.367-1.355,3.367-3.148c0-2.187-1.006-3.455-3.849-5.86
		c-3.28-2.799-4.767-5.291-4.767-8.571c0-5.073,3.324-8.309,8.047-8.309c2.449,0,4.635,0.699,5.86,1.749l-1.093,4.067
		c-0.7-0.569-2.056-1.138-3.761-1.138c-1.837,0-3.149,1.181-3.149,3.192s0.918,3.192,3.717,5.555c3.455,2.93,5.292,5.16,5.292,8.921
		C408.713,531.065,405.302,534.477,400.186,534.477z"/>
	<path fill="none" stroke="#000000" d="M419.908,534.477c-4.811,0-8.134-4.242-8.134-12.289c0-8.003,3.673-12.157,8.134-12.157
		c2.536,0,4.023,0.787,4.898,1.749l-1.138,3.543c-0.438-0.438-1.225-0.875-2.405-0.875c-2.537,0-3.761,3.018-3.761,7.653
		c0,4.767,1.399,7.652,3.673,7.652c1.225,0,1.968-0.35,2.493-0.874l1.181,3.849C423.976,533.689,422.576,534.477,419.908,534.477z"
		/>
	<path fill="none" stroke="#000000" d="M435.213,534.477c-5.641,0-8.483-2.712-8.483-7.391c0-6.035,4.46-7.916,10.758-8.746v-0.788
		c0-2.229-1.312-3.279-3.367-3.279c-1.968,0-3.718,0.568-4.985,1.225l-1.181-3.718c1.355-0.743,3.717-1.749,7.259-1.749
		c4.417,0,7.741,2.187,7.741,8.659v14.038C441.248,533.82,438.887,534.477,435.213,534.477z M437.487,521.75
		c-3.63,0.481-5.423,1.706-5.423,5.117c0,2.405,1.181,3.761,3.411,3.761c0.787,0,1.574-0.219,2.012-0.394V521.75z"/>
	<path fill="none" stroke="#000000" d="M458.478,534.039v-16.662c0-2.055-0.831-3.192-2.843-3.192c-1.181,0-1.749,0.132-2.361,0.438
		v19.417h-5.642v-22.26c1.881-1.049,4.548-1.749,8.135-1.749c5.772,0,8.439,2.361,8.439,7.347v16.662H458.478z"/>
	<path fill="none" stroke="#000000" d="M479.73,534.039v-16.662c0-2.055-0.831-3.192-2.843-3.192c-1.181,0-1.749,0.132-2.361,0.438
		v19.417h-5.642v-22.26c1.881-1.049,4.548-1.749,8.134-1.749c5.773,0,8.44,2.361,8.44,7.347v16.662H479.73z"/>
	<path fill="none" stroke="#000000" d="M495.167,524.855c0.35,3.411,1.837,5.116,4.636,5.116c2.405,0,4.023-0.655,4.941-1.225
		l1.269,3.98c-1.487,1.049-3.805,1.749-6.953,1.749c-6.21,0-9.534-4.592-9.534-12.289c0-7.084,3.236-12.157,8.834-12.157
		c5.947,0,8.834,5.073,8.396,13.382L495.167,524.855z M498.229,514.142c-2.1,0-3.455,2.886-3.411,7.04l6.385-0.787
		C501.202,516.415,500.327,514.142,498.229,514.142z"/>
	<path fill="none" stroke="#000000" d="M520.399,514.71c-1.312-0.656-2.799-0.612-3.892-0.088v19.417h-5.642v-22.26
		c2.143-1.268,5.16-1.968,10.583-1.705L520.399,514.71z"/>
</g>
</svg>
