<?xml version="1.0" encoding="utf-8"?>
<!-- Generator: Adobe Illustrator 15.0.0, SVG Export Plug-In . SVG Version: 6.00 Build 0)  -->
<!DOCTYPE svg PUBLIC "-//W3C//DTD SVG 1.1//EN" "http://www.w3.org/Graphics/SVG/1.1/DTD/svg11.dtd">
<svg version="1.1" id="Ebene_1" xmlns="http://www.w3.org/2000/svg" xmlns:xlink="http://www.w3.org/1999/xlink" x="0px" y="0px"
	 width="841.891px" height="595.275px" viewBox="0 0 841.891 595.275" enable-background="new 0 0 841.891 595.275"
	 xml:space="preserve">
<path fill="#B30030" d="M810.998,535.367h-1.5c-68.495,0-96.883-16.949-104.74-62.535l-0.021-0.22l-2.271-97.867v-91.862h-64.519
	v252.484h-76.76V282.883h-31.773v-56.334h281.585v56.334h-31.773v23.353l9.785,163.378c4.91,5.123,11.8,7.719,20.488,7.719h1.5
	V535.367z M564.187,532.367h70.76V279.883h70.519v94.827l2.269,97.721c3.938,22.721,13.246,37.597,29.288,46.81
	c15.363,8.823,37.941,13.002,70.977,13.124v-52.057c-9.073-0.299-16.321-3.34-21.559-9.05l-0.36-0.393l-0.031-0.531l-9.82-164.009
	l-0.003-26.442h31.773v-50.334H532.413v50.334h31.773V532.367z"/>
<g>
	<path fill="#B30030" d="M53.924,382.618v30.616h23.812v17.52H53.924v50.856H30.622V364.589h50.517v18.029H53.924z"/>
	<path fill="#B30030" d="M120.428,483.312c-21.941,0-32.998-10.546-32.998-28.745c0-23.473,17.349-30.786,41.842-34.019v-3.062
		c0-8.675-5.103-12.757-13.097-12.757c-7.654,0-14.458,2.212-19.39,4.763l-4.592-14.457c5.273-2.892,14.458-6.804,28.235-6.804
		c17.179,0,30.106,8.504,30.106,33.678v54.599C143.9,480.76,134.716,483.312,120.428,483.312z M129.273,433.815
		c-14.118,1.871-21.091,6.633-21.091,19.9c0,9.354,4.593,14.628,13.267,14.628c3.062,0,6.123-0.851,7.824-1.531V433.815z"/>
	<path fill="#B30030" d="M195.773,483.312c-13.947,0-22.282-3.062-27.044-6.804V348.09h21.941v43.713
		c2.892-1.7,7.314-2.892,13.777-2.892c17.859,0,29.936,17.18,29.936,44.394C234.383,465.452,221.287,483.312,195.773,483.312z
		 M198.495,404.05c-3.062,0-5.443,0.34-7.824,1.7v60.382c1.701,0.681,3.912,1.191,6.463,1.191c11.566,0,15.308-12.927,15.308-32.317
		C212.442,417.656,208.87,404.05,198.495,404.05z"/>
	<path fill="#B30030" d="M271.8,483.312c-12.417,0-20.751-2.722-26.024-6.804l5.443-18.37c2.551,2.212,8.504,5.443,16.159,5.443
		c7.824,0,13.097-5.273,13.097-12.247c0-8.504-3.912-13.437-14.968-22.792c-12.757-10.886-18.54-20.58-18.54-33.337
		c0-19.73,12.927-32.317,31.296-32.317c9.525,0,18.029,2.722,22.792,6.804l-4.252,15.818c-2.721-2.211-7.994-4.423-14.627-4.423
		c-7.144,0-12.247,4.593-12.247,12.417s3.572,12.417,14.458,21.602c13.437,11.396,20.581,20.07,20.581,34.698
		C304.967,470.044,291.7,483.312,271.8,483.312z"/>
	<path fill="#B30030" d="M348.508,483.312c-18.71,0-31.637-16.499-31.637-47.796c0-31.126,14.288-47.284,31.637-47.284
		c9.865,0,15.648,3.062,19.05,6.804l-4.422,13.776c-1.701-1.7-4.762-3.401-9.355-3.401c-9.865,0-14.627,11.736-14.627,29.766
		c0,18.54,5.443,29.766,14.288,29.766c4.762,0,7.654-1.36,9.695-3.401l4.593,14.968C364.326,480.25,358.883,483.312,348.508,483.312
		z"/>
	<path fill="#B30030" d="M408.037,483.312c-21.941,0-32.998-10.546-32.998-28.745c0-23.473,17.349-30.786,41.842-34.019v-3.062
		c0-8.675-5.103-12.757-13.097-12.757c-7.654,0-14.458,2.212-19.39,4.763l-4.592-14.457c5.273-2.892,14.458-6.804,28.235-6.804
		c17.179,0,30.106,8.504,30.106,33.678v54.599C431.509,480.76,422.324,483.312,408.037,483.312z M416.881,433.815
		c-14.118,1.871-21.091,6.633-21.091,19.9c0,9.354,4.593,14.628,13.267,14.628c3.062,0,6.123-0.851,7.824-1.531V433.815z"/>
	<path fill="#B30030" d="M498.52,481.61v-64.804c0-7.995-3.231-12.417-11.056-12.417c-4.593,0-6.804,0.51-9.186,1.701v75.52h-21.941
		v-86.575c7.314-4.083,17.689-6.804,31.637-6.804c22.452,0,32.827,9.185,32.827,28.575v64.804H498.52z"/>
</g>
<g>
	<path fill="#B0B1B3" d="M38.36,533.477c-7.085,0-10.059-6.997-10.059-15.481c0-8.44,2.974-15.48,10.059-15.48
		c7.084,0,10.058,7.04,10.058,15.48C48.418,526.479,45.444,533.477,38.36,533.477z M38.36,507.15c-3.236,0-3.936,5.379-3.936,10.626
		c0,5.292,0.656,10.627,3.936,10.627c3.323,0,3.936-5.335,3.936-10.627C42.295,512.529,41.552,507.15,38.36,507.15z"/>
	<path fill="#B0B1B3" d="M61.1,533.389c-1.443,0-2.23-0.262-2.755-0.48v9.533h-5.686v-31.662c1.662-1.006,4.067-1.749,7.216-1.749
		c6.079,0,9.708,4.023,9.708,12.114C69.583,528.71,66.085,533.389,61.1,533.389z M59.919,513.098c-0.7,0-1.225,0.131-1.618,0.306
		v15.743c0.394,0.088,0.875,0.219,1.399,0.219c3.367,0,4.198-4.285,4.198-8.09C63.898,517.121,63.024,513.098,59.919,513.098z"/>
	<path fill="#B0B1B3" d="M78.679,523.855c0.35,3.411,1.837,5.116,4.636,5.116c2.405,0,4.023-0.655,4.941-1.225l1.269,3.98
		c-1.487,1.049-3.805,1.749-6.954,1.749c-6.21,0-9.533-4.592-9.533-12.289c0-7.084,3.236-12.157,8.833-12.157
		c5.948,0,8.834,5.073,8.396,13.382L78.679,523.855z M81.74,513.142c-2.099,0-3.455,2.886-3.411,7.04l6.385-0.787
		C84.714,515.415,83.839,513.142,81.74,513.142z"/>
	<path fill="#B0B1B3" d="M105.224,533.039v-16.662c0-2.055-0.831-3.192-2.843-3.192c-1.181,0-1.749,0.132-2.361,0.438v19.417h-5.642
		v-22.26c1.881-1.049,4.548-1.749,8.134-1.749c5.772,0,8.44,2.361,8.44,7.347v16.662H105.224z"/>
	<path fill="#B0B1B3" d="M131.724,533.477c-3.192,0-5.335-0.7-6.691-1.749l1.399-4.724c0.656,0.568,2.187,1.399,4.155,1.399
		c2.011,0,3.367-1.355,3.367-3.148c0-2.187-1.006-3.455-3.849-5.86c-3.28-2.799-4.767-5.291-4.767-8.571
		c0-5.073,3.324-8.309,8.047-8.309c2.449,0,4.635,0.699,5.86,1.749l-1.093,4.067c-0.7-0.569-2.055-1.138-3.761-1.138
		c-1.837,0-3.149,1.181-3.149,3.192s0.918,3.192,3.717,5.555c3.455,2.93,5.292,5.16,5.292,8.921
		C140.252,530.065,136.841,533.477,131.724,533.477z"/>
	<path fill="#B0B1B3" d="M151.928,533.477c-5.772,0-8.615-5.248-8.615-12.245s2.843-12.201,8.615-12.201
		c5.816,0,8.615,5.204,8.615,12.201S157.744,533.477,151.928,533.477z M151.928,513.229c-2.493,0-2.93,3.586-2.93,7.872
		c0,4.285,0.481,7.784,2.93,7.784c2.537,0,2.974-3.499,2.974-7.74C154.902,516.858,154.464,513.229,151.928,513.229z"/>
	<path fill="#B0B1B3" d="M172.919,533.477c-5.248,0-8.266-2.274-8.266-8.178v-15.831h5.686v16.486c0,1.881,0.918,3.062,2.755,3.062
		c0.875,0,1.662-0.219,2.274-0.568v-18.979h5.729v22.172C179.391,532.733,176.636,533.477,172.919,533.477z"/>
	<path fill="#B0B1B3" d="M195.309,513.71c-1.312-0.656-2.799-0.612-3.892-0.088v19.417h-5.642v-22.26
		c2.143-1.268,5.161-1.968,10.583-1.705L195.309,513.71z"/>
	<path fill="#B0B1B3" d="M205.673,533.477c-4.811,0-8.134-4.242-8.134-12.289c0-8.003,3.674-12.157,8.134-12.157
		c2.537,0,4.023,0.787,4.898,1.749l-1.137,3.543c-0.438-0.438-1.225-0.875-2.405-0.875c-2.537,0-3.761,3.018-3.761,7.653
		c0,4.767,1.399,7.652,3.673,7.652c1.225,0,1.968-0.35,2.493-0.874l1.181,3.849C209.74,532.689,208.341,533.477,205.673,533.477z"/>
	<path fill="#B0B1B3" d="M218.137,523.855c0.35,3.411,1.837,5.116,4.636,5.116c2.405,0,4.023-0.655,4.941-1.225l1.269,3.98
		c-1.487,1.049-3.805,1.749-6.954,1.749c-6.21,0-9.534-4.592-9.534-12.289c0-7.084,3.236-12.157,8.834-12.157
		c5.948,0,8.834,5.073,8.396,13.382L218.137,523.855z M221.198,513.142c-2.099,0-3.455,2.886-3.411,7.04l6.385-0.787
		C224.172,515.415,223.297,513.142,221.198,513.142z"/>
	<path fill="#B0B1B3" d="M250.628,533.477c-3.542,0-5.641-0.612-7.216-1.749l1.575-4.286c0.787,0.612,2.187,1.181,4.373,1.181
		c2.58,0,4.417-2.099,4.417-4.679c0-3.236-2.405-5.292-6.035-5.336v-3.323c3.367-0.394,5.51-2.012,5.51-4.548
		c0-2.012-1.487-3.63-3.848-3.63c-1.575,0-2.799,0.524-3.717,1.093l-1.443-3.936c1.531-1.05,3.717-1.749,6.647-1.749
		c5.248,0,7.872,3.586,7.872,7.391c0,3.104-1.75,4.985-3.455,6.035v0.087c2.23,1.269,4.286,3.717,4.286,7.74
		C259.594,529.19,255.701,533.477,250.628,533.477z"/>
	<path fill="#B0B1B3" d="M272.318,533.477c-3.367,0-6.079-0.656-7.653-1.749v-27.464c1.706-1.006,4.242-1.749,7.347-1.749
		c8.266,0,11.458,6.604,11.458,15.394C283.47,526.479,280.54,533.477,272.318,533.477z M272.231,507.019
		c-0.7,0-1.268,0.132-1.662,0.307v21.122c0.35,0.131,1.006,0.263,1.749,0.263c3.673,0,5.117-3.149,5.117-10.977
		C277.435,510.386,275.948,507.019,272.231,507.019z"/>
	<path fill="#B0B1B3" d="M298.644,533.039v-30.088h5.991v25.452h6.429v4.636H298.644z"/>
	<path fill="#B0B1B3" d="M321.777,533.477c-5.642,0-8.484-2.712-8.484-7.391c0-6.035,4.46-7.916,10.758-8.746v-0.788
		c0-2.229-1.312-3.279-3.367-3.279c-1.968,0-3.717,0.568-4.986,1.225l-1.181-3.718c1.356-0.743,3.717-1.749,7.26-1.749
		c4.417,0,7.74,2.187,7.74,8.659v14.038C327.812,532.82,325.451,533.477,321.777,533.477z M324.051,520.75
		c-3.63,0.481-5.423,1.706-5.423,5.117c0,2.405,1.181,3.761,3.411,3.761c0.787,0,1.574-0.219,2.012-0.394V520.75z"/>
	<path fill="#B0B1B3" d="M338.875,533.477c-2.668,0-4.504-0.568-5.86-1.749l1.399-4.155c0.656,0.612,2.056,1.312,3.586,1.312
		c1.487,0,2.449-0.875,2.449-2.187c0-1.706-0.744-2.405-2.843-3.979c-2.23-1.662-4.198-3.718-4.198-6.822
		c0-4.023,2.668-6.866,6.604-6.866c2.537,0,4.417,0.656,5.772,1.749l-1.355,3.63c-0.568-0.524-1.662-1.137-3.105-1.137
		c-1.399,0-2.274,1.05-2.274,2.23c0,1.53,1.093,2.448,3.192,3.979c2.449,1.837,4.198,3.542,4.198,6.997
		C346.441,530.503,343.249,533.477,338.875,533.477z"/>
	<path fill="#B0B1B3" d="M355.143,523.855c0.35,3.411,1.837,5.116,4.636,5.116c2.405,0,4.023-0.655,4.941-1.225l1.269,3.98
		c-1.487,1.049-3.805,1.749-6.954,1.749c-6.21,0-9.533-4.592-9.533-12.289c0-7.084,3.236-12.157,8.833-12.157
		c5.948,0,8.834,5.073,8.396,13.382L355.143,523.855z M358.204,513.142c-2.099,0-3.455,2.886-3.411,7.04l6.385-0.787
		C361.178,515.415,360.303,513.142,358.204,513.142z"/>
	<path fill="#B0B1B3" d="M380.376,513.71c-1.312-0.656-2.799-0.612-3.892-0.088v19.417h-5.642v-22.26
		c2.143-1.268,5.161-1.968,10.583-1.705L380.376,513.71z"/>
	<path fill="#B0B1B3" d="M400.186,533.477c-3.192,0-5.335-0.7-6.691-1.749l1.399-4.724c0.656,0.568,2.187,1.399,4.155,1.399
		c2.012,0,3.367-1.355,3.367-3.148c0-2.187-1.006-3.455-3.849-5.86c-3.28-2.799-4.767-5.291-4.767-8.571
		c0-5.073,3.324-8.309,8.047-8.309c2.449,0,4.635,0.699,5.86,1.749l-1.093,4.067c-0.7-0.569-2.056-1.138-3.761-1.138
		c-1.837,0-3.149,1.181-3.149,3.192s0.918,3.192,3.717,5.555c3.455,2.93,5.292,5.16,5.292,8.921
		C408.713,530.065,405.302,533.477,400.186,533.477z"/>
	<path fill="#B0B1B3" d="M419.908,533.477c-4.811,0-8.134-4.242-8.134-12.289c0-8.003,3.673-12.157,8.134-12.157
		c2.536,0,4.023,0.787,4.898,1.749l-1.138,3.543c-0.438-0.438-1.225-0.875-2.405-0.875c-2.537,0-3.761,3.018-3.761,7.653
		c0,4.767,1.399,7.652,3.673,7.652c1.225,0,1.968-0.35,2.493-0.874l1.181,3.849C423.976,532.689,422.576,533.477,419.908,533.477z"
		/>
	<path fill="#B0B1B3" d="M435.213,533.477c-5.641,0-8.483-2.712-8.483-7.391c0-6.035,4.46-7.916,10.758-8.746v-0.788
		c0-2.229-1.312-3.279-3.367-3.279c-1.968,0-3.718,0.568-4.985,1.225l-1.181-3.718c1.355-0.743,3.717-1.749,7.259-1.749
		c4.417,0,7.741,2.187,7.741,8.659v14.038C441.248,532.82,438.887,533.477,435.213,533.477z M437.487,520.75
		c-3.63,0.481-5.423,1.706-5.423,5.117c0,2.405,1.181,3.761,3.411,3.761c0.787,0,1.574-0.219,2.012-0.394V520.75z"/>
	<path fill="#B0B1B3" d="M458.478,533.039v-16.662c0-2.055-0.831-3.192-2.843-3.192c-1.181,0-1.749,0.132-2.361,0.438v19.417h-5.642
		v-22.26c1.881-1.049,4.548-1.749,8.135-1.749c5.772,0,8.439,2.361,8.439,7.347v16.662H458.478z"/>
	<path fill="#B0B1B3" d="M479.73,533.039v-16.662c0-2.055-0.831-3.192-2.843-3.192c-1.181,0-1.749,0.132-2.361,0.438v19.417h-5.642
		v-22.26c1.881-1.049,4.548-1.749,8.134-1.749c5.773,0,8.44,2.361,8.44,7.347v16.662H479.73z"/>
	<path fill="#B0B1B3" d="M495.167,523.855c0.35,3.411,1.837,5.116,4.636,5.116c2.405,0,4.023-0.655,4.941-1.225l1.269,3.98
		c-1.487,1.049-3.805,1.749-6.953,1.749c-6.21,0-9.534-4.592-9.534-12.289c0-7.084,3.236-12.157,8.834-12.157
		c5.947,0,8.834,5.073,8.396,13.382L495.167,523.855z M498.229,513.142c-2.1,0-3.455,2.886-3.411,7.04l6.385-0.787
		C501.202,515.415,500.327,513.142,498.229,513.142z"/>
	<path fill="#B0B1B3" d="M520.399,513.71c-1.312-0.656-2.799-0.612-3.892-0.088v19.417h-5.642v-22.26
		c2.143-1.268,5.16-1.968,10.583-1.705L520.399,513.71z"/>
</g>
<g>
	<path fill-rule="evenodd" clip-rule="evenodd" fill="#EAB90C" d="M778.302,475.246c-9.509,3.784-25.439,4.586-32.483,4.431
		c-31.133-0.689-65.42-12.84-87.607-35.166c-15.566-14.665-28.092-56.843-3.409-65.725c6.173-1.49,12.794,1.245,16.252,2.442
		c3.042,1.053,13.149,8.326,16.269,6.558c5.607-13.15,27.197-15.837,38.879-15.601c-6.815-13.764-10.73-22.439-8.52-37.92
		c1.699-11.889,8.32-23.445,19.654-28.348c17.572-7.602,51.442-4.467,55.806,18.996c3.826-0.638,9.209-4.609,12.245-5.867
		c6.449-2.671,15.69-5.23,18.615-3.141c5.439,5.487-8.962,20.381-12.358,25.25c-1.774,2.543,21.13,11.485,12.719,19.27
		c-2.954,2.733-28.563,2.049-24.721,9.6c6.729-1.611,16.995,12.562,20.092,16.724c7.443,9.999,8.767,24.979,7.432,36.979
		c-1.044,9.381-6.216,21.37-13.113,28.268C807.552,458.496,793.626,469.147,778.302,475.246z"/>
	<radialGradient id="SVGID_1_" cx="762.2705" cy="421.418" r="45.7936" gradientUnits="userSpaceOnUse">
		<stop  offset="0" style="stop-color:#FFFFFF"/>
		<stop  offset="1" style="stop-color:#EAB90C"/>
	</radialGradient>
	<circle opacity="0.7" fill-rule="evenodd" clip-rule="evenodd" fill="url(#SVGID_1_)" cx="762.271" cy="420.716" r="45.793"/>
	<radialGradient id="SVGID_2_" cx="763.3252" cy="333.6768" r="29.81" gradientUnits="userSpaceOnUse">
		<stop  offset="0" style="stop-color:#FFFFFF"/>
		<stop  offset="1" style="stop-color:#EAB90C"/>
	</radialGradient>
	<circle opacity="0.6" fill-rule="evenodd" clip-rule="evenodd" fill="url(#SVGID_2_)" cx="763.325" cy="333.22" r="29.81"/>
</g>
<path fill-rule="evenodd" clip-rule="evenodd" fill="#58595B" d="M824.159,388.824c-2.586-4.919-16.557-23.543-23.193-21.088
	c-1.29-3.316,52.304-2.455,13.357-26.236c2.585-8.271,11.546-13.958,13.1-24.806c2.036-14.216-30.059,1.736-33.528,3.288
	c-5.846-20.019-32.976-24.051-50.149-18.916c-31.678,9.472-32.082,44.914-20.1,69.115c-27.945,0.569-37.423,17.285-48.332,12.191
	c-18.639-8.703-33.41-8.362-37.447,13.029c-8.771,46.473,50.662,77.208,87.797,83.177c26.842,4.314,53.725,0.259,72.218-12.782
	C825.522,446.304,838.624,419.303,824.159,388.824C822.238,384.776,830.603,401.071,824.159,388.824z M825.028,423.553
	c-10.211,54.228-90.018,64.073-133.877,41.605c-21.492-11.009-42.594-26.796-48.56-51.238c-8.954-36.693,20.655-38.06,44.554-24.34
	c5.307-7.97,35.242-24.595,44.504-13.038c2.33,1.312,14.176,7.728,13.25,1.75c-0.227-1.588-11.129-5.703-11.164-5.718
	c-3.697-2.9-8.11-10.748-10.171-15.01c-5.064-22.083-1.948-50.015,26.309-54.493c19.608-3.107,39.446,5.303,43.254,23.092
	c6.538-0.854,24.489-15.856,31.02-8.1c2.018,2.46-13.255,17.071-17.922,27.056c5.739-0.716,16.827,3.106,17.577,10.856
	c0.278,4.653-11.671,1.344-27.402,11.224c-2.014,1.265-4.674,2.702-4.674,5.93c3.701,1.286,4.045,0,6.758-2.787
	c3.303-2.263,12.638,7.764,14.266,9.427C823.463,390.71,827.925,408.548,825.028,423.553
	C824.101,428.36,825.538,420.844,825.028,423.553z"/>
<path fill="#B30030" d="M711.018,469.663l-2.35-1.863c7.417-9.353,12.339-17.109,15.957-25.151
	c5.365-11.922,5.146-34.363-4.562-49.833c-4.17-6.644-14.337-13.131-14.439-13.195l1.605-2.535
	c0.44,0.279,10.848,6.923,15.375,14.137c10.235,16.309,10.438,40.031,4.757,52.657C723.637,452.157,718.596,460.109,711.018,469.663
	z"/>
<path fill="#B30030" d="M791.166,465.771l-2.301-1.926c11.024-13.177,14.945-21.42,16.779-35.282
	c0.014-0.165,1.953-22.667-6.736-34.936c-8.281-11.692-21.923-21.578-22.06-21.677l-0.938-0.675l0.412-1.079
	c0.07-0.184,7.021-18.512,7.021-32.218c0-13.593-6.143-25.4-6.204-25.519l2.652-1.401c0.268,0.506,6.552,12.56,6.552,26.92
	c0,12.478-5.296,28.006-6.821,32.218c3.282,2.472,14.431,11.244,21.833,21.696c9.335,13.179,7.358,36.037,7.271,37.004
	C806.696,443.48,802.619,452.082,791.166,465.771z"/>
</svg>
